<svg height="1456" viewBox="3.67 3.36864185 120.88920036 71.63946044" width="2500" xmlns="http://www.w3.org/2000/svg"><rect fill="#fff" height="66.87" rx="10.16" width="124.43" x=".29"/><path d="m119.34 5.37a6.7 6.7 0 0 0 -4.78-2h-29.11l16.74 27.94 1.53.19.9 1.27v1.23l1.08.2 1 1.33v1.15l1.09.19s1.08 1.15 1.08 1.21v2.62a17.86 17.86 0 0 0 4.47 3c1.47.58 1.66 2.94 2.49 4.21 1.15 1.79 2.68 2.55 2.36 3.57-.76 2.74-3.57 7.34-6.18 7.59h-10.38v4.42h12.92a6.78 6.78 0 0 0 6.77-6.78v-46.55a6.73 6.73 0 0 0 -1.98-4.79z" fill="#db0032"/><path d="m75.53 3.39h-65.09a6.78 6.78 0 0 0 -6.77 6.77v46.55a6.79 6.79 0 0 0 6.77 6.78h42.28l-2.62-4.39h-5c0-12.5 4.26-19.45 9.3-20.8.7-.12.38-3.57-.52-4.59a23.56 23.56 0 0 1 -2.93-.06c-.64-.19-.19-.83-.19-.83l2.35-5.1-.32-1.41h-8.79c-.13 0 7.2-5 7.2-5 .41-13.31 13.99-14.31 22.22-8.85 4.85 3.25 5.24 9.63 4.86 14.1-.07.25-1.28.06-1.28.06s-.83 4.85 1.34 4.85h9.57c3.89-.14 7.65 2.53 7.65 2.53l1-3.32zm-57.86 50.51a4.65 4.65 0 1 1 4.65-4.65 4.65 4.65 0 0 1 -4.65 4.65z" fill="#002d74"/><path d="m121.54 70a2.18 2.18 0 1 1 -2.15 2.18 2.14 2.14 0 0 1 2.15-2.18zm0 5a2.78 2.78 0 1 0 -2.76-2.78 2.75 2.75 0 0 0 2.76 2.78zm.58-2.5a.77.77 0 0 0 .79-.86c0-.76-.46-.88-1.12-.88h-1.41v2.89h.62v-1.15h.5l.67 1.15h.67zm-1.12-.5v-.69h.66c.29 0 .67 0 .67.31s-.2.38-.52.38z" fill="#fff"/></svg>